<?xml version="1.0" encoding="UTF-8" standalone="no"?>
<!-- Created with Inkscape (http://www.inkscape.org/) -->

<svg
  xmlns="http://www.w3.org/2000/svg"
  viewBox="0 0 33.866666 33.866666"
>
  <style>
    @media (prefers-color-scheme: dark) {
      .primary { fill: #eee8d5; stroke: #657b83 }
    }
  </style>
  <path
    class="primary"
    fill="#073642"
    stroke="#839496"
    d="m 12.130366,31.724586 q -3.532711,0 -6.0475224,-1.616665 -2.5148114,-1.616664 -3.8520524,-4.830034 -1.31728218,-3.213371 -1.31728218,-7.903693 0,-4.550612 1.61666448,-7.7639818 Q 4.1667968,6.3768833 6.9011553,4.74026 9.6355137,3.0836778 12.928719,3.0836778 q 2.674482,0 4.57057,0.7983529 1.896088,0.778394 3.632506,2.3750996 l -2.594647,2.6944408 q -1.277365,-1.1576116 -2.594647,-1.6964997 -1.297323,-0.558847 -2.894029,-0.558847 -2.055758,0 -3.6923818,1.0777763 -1.6366233,1.0578175 -2.6146055,3.4528763 -0.9779822,2.395058 -0.9779822,6.167275 0,3.812135 0.7185175,6.187235 0.7384764,2.355141 2.1755115,3.452876 1.4569935,1.077776 3.6923815,1.077776 2.415018,0 4.550612,-1.157611 V 19.370076 H 12.23016 l -0.49897,-3.532712 h 9.660069 v 13.352451 q -2.155552,1.217489 -4.370982,1.87613 -2.19547,0.658641 -4.889911,0.658641 z"
  />
  <path
    class="primary"
    fill="#073642"
    stroke="#839496"
    d="m 32.65805,9.3433004 q 0,3.4561996 -1.612893,4.8209556 -1.612894,1.355894 -4.067682,1.355894 H 23.982102 V 3.2905193 h 2.791546 q 1.68379,0 2.968787,0.4962749 1.29386,0.4874128 2.100306,1.8255826 0.815309,1.3381697 0.815309,3.7309236 z m -2.16234,0 q 0,-1.8255826 -0.469689,-2.8092703 Q 29.565194,5.5414804 28.838506,5.2047224 28.12068,4.8679645 27.163578,4.8679645 h -1.12548 v 9.0924645 h 1.134342 q 3.32327,0 3.32327,-4.6171286 z"
  />
  <path
    class="primary"
    fill="#073642"
    stroke="#839496"
    d="m 28.760093,17.649438 q 1.266147,0 2.175898,0.32826 0.90975,0.318882 1.725712,0.994161 l -1.134843,1.350557 q -1.153601,-0.956645 -2.6636,-0.956645 -1.022297,0 -1.82888,0.506459 -0.806583,0.50646 -1.284905,1.622545 -0.468944,1.116086 -0.468944,2.869935 0,2.551053 0.975403,3.770306 0.975403,1.209875 2.607326,1.209875 0.937887,0 1.613166,-0.290745 0.675279,-0.300124 1.322421,-0.825341 l 1.050434,1.341179 q -0.712795,0.703415 -1.725713,1.125464 -1.003539,0.41267 -2.335339,0.41267 -1.669439,0 -2.973102,-0.778446 -1.303663,-0.787825 -2.053973,-2.307202 -0.740931,-1.519377 -0.740931,-3.65776 0,-2.110246 0.759689,-3.629623 0.759689,-1.519378 2.063352,-2.297824 1.313042,-0.787825 2.916829,-0.787825 z"
  />
</svg>
