<svg xmlns="http://www.w3.org/2000/svg" viewBox="0 0 33.867 33.867"><style>@media (prefers-color-scheme:dark){.primary{fill:#eee8d5;stroke:#657b83}}</style><path class="primary" fill="#073642" stroke="#839496" d="M12.13 31.725q-3.532 0-6.047-1.617-2.515-1.617-3.852-4.83Q.914 22.065.914 17.374q0-4.55 1.616-7.764 1.637-3.233 4.371-4.87 2.735-1.656 6.028-1.656 2.674 0 4.57.798 1.896.778 3.633 2.375l-2.595 2.695q-1.277-1.158-2.594-1.697-1.298-.559-2.895-.559-2.055 0-3.692 1.078-1.637 1.058-2.615 3.453-.977 2.395-.977 6.167 0 3.812.718 6.187.738 2.356 2.176 3.453 1.457 1.078 3.692 1.078 2.415 0 4.55-1.158V19.37h-4.67l-.499-3.533h9.66V29.19q-2.155 1.217-4.37 1.876-2.196.659-4.89.659zM32.658 9.343q0 3.457-1.613 4.821-1.613 1.356-4.068 1.356h-2.995V3.29h2.792q1.683 0 2.968.497 1.294.487 2.1 1.825.816 1.339.816 3.731zm-2.162 0q0-1.825-.47-2.809-.46-.993-1.187-1.33-.718-.336-1.675-.336h-1.126v9.092h1.134q3.324 0 3.324-4.617zM28.76 17.65q1.266 0 2.176.328.91.319 1.726.994l-1.135 1.35q-1.154-.956-2.664-.956-1.022 0-1.829.506-.806.507-1.285 1.623-.468 1.116-.468 2.87 0 2.55.975 3.77.975 1.21 2.607 1.21.938 0 1.613-.29.676-.301 1.323-.826l1.05 1.341q-.713.703-1.725 1.125-1.004.413-2.336.413-1.67 0-2.973-.778-1.304-.788-2.054-2.308-.74-1.519-.74-3.657 0-2.11.759-3.63.76-1.52 2.063-2.298 1.313-.788 2.917-.788z"/></svg>